<mxfile host="app.diagrams.net" modified="2024-01-08T03:43:21.246Z" agent="Mozilla/5.0 (Macintosh; Intel Mac OS X 10_15_7) AppleWebKit/537.36 (KHTML, like Gecko) Chrome/120.0.0.0 Safari/537.36 Edg/120.0.0.0" etag="BTeUQ6JRsor5Xx5PokDx" version="22.1.17" type="github">
  <diagram name="第 1 页" id="Bpt3EHnc-XG6woePa3AU">
    <mxGraphModel dx="977" dy="698" grid="1" gridSize="10" guides="1" tooltips="1" connect="1" arrows="1" fold="1" page="1" pageScale="1" pageWidth="827" pageHeight="1169" math="0" shadow="0">
      <root>
        <mxCell id="0" />
        <mxCell id="1" parent="0" />
        <mxCell id="xj7ccxpRjcmuDJTjEku6-1" value="&lt;font face=&quot;Times New Roman&quot; style=&quot;font-size: 17px;&quot;&gt;About 14,000 people fled their homes at the weekend after a local tsunami warning was issued. &lt;/font&gt;" style="text;whiteSpace=wrap;html=1;" parent="1" vertex="1">
          <mxGeometry x="134" y="70" width="626" height="40" as="geometry" />
        </mxCell>
        <mxCell id="xj7ccxpRjcmuDJTjEku6-5" value="" style="rounded=0;orthogonalLoop=1;jettySize=auto;html=1;" parent="1" source="xj7ccxpRjcmuDJTjEku6-2" target="xj7ccxpRjcmuDJTjEku6-4" edge="1">
          <mxGeometry relative="1" as="geometry" />
        </mxCell>
        <mxCell id="xj7ccxpRjcmuDJTjEku6-6" value="&lt;font face=&quot;宋体-简&quot;&gt;核心角色&lt;/font&gt;" style="edgeLabel;html=1;align=center;verticalAlign=middle;resizable=0;points=[];" parent="xj7ccxpRjcmuDJTjEku6-5" vertex="1" connectable="0">
          <mxGeometry y="1" relative="1" as="geometry">
            <mxPoint x="-29" y="-5" as="offset" />
          </mxGeometry>
        </mxCell>
        <mxCell id="xj7ccxpRjcmuDJTjEku6-8" value="" style="rounded=0;orthogonalLoop=1;jettySize=auto;html=1;" parent="1" source="xj7ccxpRjcmuDJTjEku6-2" target="xj7ccxpRjcmuDJTjEku6-7" edge="1">
          <mxGeometry relative="1" as="geometry" />
        </mxCell>
        <mxCell id="xj7ccxpRjcmuDJTjEku6-9" value="&lt;font face=&quot;宋体-简&quot;&gt;核心角色&lt;/font&gt;" style="edgeLabel;html=1;align=center;verticalAlign=middle;resizable=0;points=[];" parent="xj7ccxpRjcmuDJTjEku6-8" vertex="1" connectable="0">
          <mxGeometry x="-0.05" y="2" relative="1" as="geometry">
            <mxPoint x="-6" y="-12" as="offset" />
          </mxGeometry>
        </mxCell>
        <mxCell id="xj7ccxpRjcmuDJTjEku6-11" value="" style="rounded=0;orthogonalLoop=1;jettySize=auto;html=1;" parent="1" source="xj7ccxpRjcmuDJTjEku6-2" target="xj7ccxpRjcmuDJTjEku6-10" edge="1">
          <mxGeometry relative="1" as="geometry" />
        </mxCell>
        <mxCell id="xj7ccxpRjcmuDJTjEku6-12" value="&lt;font face=&quot;宋体-简&quot;&gt;时间&lt;/font&gt;" style="edgeLabel;html=1;align=center;verticalAlign=middle;resizable=0;points=[];" parent="xj7ccxpRjcmuDJTjEku6-11" vertex="1" connectable="0">
          <mxGeometry x="-0.4" y="-1" relative="1" as="geometry">
            <mxPoint x="11" y="-11" as="offset" />
          </mxGeometry>
        </mxCell>
        <mxCell id="xj7ccxpRjcmuDJTjEku6-14" value="" style="rounded=0;orthogonalLoop=1;jettySize=auto;html=1;" parent="1" source="xj7ccxpRjcmuDJTjEku6-2" target="xj7ccxpRjcmuDJTjEku6-13" edge="1">
          <mxGeometry relative="1" as="geometry" />
        </mxCell>
        <mxCell id="xj7ccxpRjcmuDJTjEku6-15" value="&lt;font face=&quot;宋体-简&quot;&gt;条件&lt;/font&gt;" style="edgeLabel;html=1;align=center;verticalAlign=middle;resizable=0;points=[];" parent="xj7ccxpRjcmuDJTjEku6-14" vertex="1" connectable="0">
          <mxGeometry x="-0.175" y="1" relative="1" as="geometry">
            <mxPoint x="15" y="-7" as="offset" />
          </mxGeometry>
        </mxCell>
        <mxCell id="xj7ccxpRjcmuDJTjEku6-2" value="&lt;font face=&quot;Times New Roman&quot;&gt;flee-01&lt;/font&gt;" style="ellipse;whiteSpace=wrap;html=1;" parent="1" vertex="1">
          <mxGeometry x="154" y="234" width="90" height="40" as="geometry" />
        </mxCell>
        <mxCell id="xj7ccxpRjcmuDJTjEku6-4" value="&lt;font face=&quot;Times New Roman&quot;&gt;person&lt;br&gt;quant: about 14000&lt;/font&gt;" style="ellipse;whiteSpace=wrap;html=1;fillColor=#dae8fc;strokeColor=#6c8ebf;" parent="1" vertex="1">
          <mxGeometry x="209" y="124" width="140" height="40" as="geometry" />
        </mxCell>
        <mxCell id="xj7ccxpRjcmuDJTjEku6-7" value="&lt;font face=&quot;Times New Roman&quot;&gt;home&lt;br&gt;poss:p&lt;/font&gt;" style="ellipse;whiteSpace=wrap;html=1;fillColor=#dae8fc;strokeColor=#6c8ebf;" parent="1" vertex="1">
          <mxGeometry x="369" y="154" width="90" height="40" as="geometry" />
        </mxCell>
        <mxCell id="xj7ccxpRjcmuDJTjEku6-10" value="&lt;font face=&quot;Times New Roman&quot;&gt;weekend&lt;/font&gt;" style="ellipse;whiteSpace=wrap;html=1;fillColor=#dae8fc;strokeColor=#6c8ebf;" parent="1" vertex="1">
          <mxGeometry x="369" y="214" width="90" height="40" as="geometry" />
        </mxCell>
        <mxCell id="xj7ccxpRjcmuDJTjEku6-24" value="" style="edgeStyle=orthogonalEdgeStyle;rounded=0;orthogonalLoop=1;jettySize=auto;html=1;" parent="1" source="xj7ccxpRjcmuDJTjEku6-13" target="xj7ccxpRjcmuDJTjEku6-16" edge="1">
          <mxGeometry relative="1" as="geometry" />
        </mxCell>
        <mxCell id="xj7ccxpRjcmuDJTjEku6-25" value="&lt;font face=&quot;宋体-简&quot;&gt;核心角色&lt;/font&gt;" style="edgeLabel;html=1;align=center;verticalAlign=middle;resizable=0;points=[];" parent="xj7ccxpRjcmuDJTjEku6-24" vertex="1" connectable="0">
          <mxGeometry x="-0.1483" y="1" relative="1" as="geometry">
            <mxPoint y="-8" as="offset" />
          </mxGeometry>
        </mxCell>
        <mxCell id="xj7ccxpRjcmuDJTjEku6-13" value="&lt;font face=&quot;Times New Roman&quot;&gt;issue-01&lt;/font&gt;" style="ellipse;whiteSpace=wrap;html=1;fillColor=#dae8fc;strokeColor=#6c8ebf;" parent="1" vertex="1">
          <mxGeometry x="369" y="274" width="90" height="40" as="geometry" />
        </mxCell>
        <mxCell id="xj7ccxpRjcmuDJTjEku6-20" value="&lt;font face=&quot;宋体-简&quot;&gt;修饰词&lt;/font&gt;" style="rounded=0;orthogonalLoop=1;jettySize=auto;html=1;" parent="1" source="xj7ccxpRjcmuDJTjEku6-16" target="xj7ccxpRjcmuDJTjEku6-19" edge="1">
          <mxGeometry x="-0.0636" y="17" relative="1" as="geometry">
            <mxPoint as="offset" />
          </mxGeometry>
        </mxCell>
        <mxCell id="xj7ccxpRjcmuDJTjEku6-22" value="" style="rounded=0;orthogonalLoop=1;jettySize=auto;html=1;" parent="1" source="xj7ccxpRjcmuDJTjEku6-16" target="xj7ccxpRjcmuDJTjEku6-21" edge="1">
          <mxGeometry relative="1" as="geometry" />
        </mxCell>
        <mxCell id="xj7ccxpRjcmuDJTjEku6-23" value="&lt;font face=&quot;宋体-简&quot;&gt;修饰词&lt;/font&gt;" style="edgeLabel;html=1;align=center;verticalAlign=middle;resizable=0;points=[];" parent="xj7ccxpRjcmuDJTjEku6-22" vertex="1" connectable="0">
          <mxGeometry x="-0.175" y="-3" relative="1" as="geometry">
            <mxPoint x="-1" y="14" as="offset" />
          </mxGeometry>
        </mxCell>
        <mxCell id="xj7ccxpRjcmuDJTjEku6-16" value="&lt;font face=&quot;Times New Roman&quot;&gt;warning&lt;/font&gt;" style="ellipse;whiteSpace=wrap;html=1;fillColor=#dae8fc;strokeColor=#6c8ebf;" parent="1" vertex="1">
          <mxGeometry x="518" y="274" width="90" height="40" as="geometry" />
        </mxCell>
        <mxCell id="xj7ccxpRjcmuDJTjEku6-19" value="&lt;font face=&quot;Times New Roman&quot;&gt;tsunami&lt;/font&gt;" style="ellipse;whiteSpace=wrap;html=1;fillColor=#dae8fc;strokeColor=#6c8ebf;" parent="1" vertex="1">
          <mxGeometry x="648" y="224" width="90" height="40" as="geometry" />
        </mxCell>
        <mxCell id="xj7ccxpRjcmuDJTjEku6-21" value="&lt;font face=&quot;Times New Roman&quot;&gt;local&lt;/font&gt;" style="ellipse;whiteSpace=wrap;html=1;fillColor=#dae8fc;strokeColor=#6c8ebf;" parent="1" vertex="1">
          <mxGeometry x="648" y="324" width="90" height="40" as="geometry" />
        </mxCell>
      </root>
    </mxGraphModel>
  </diagram>
</mxfile>
